# xmcd
#
# Track frame offsets: 
#        150
#        43154
#        84683
#        108794
#        145320
#        174399
#        200431
#        208945
#        225073
#        237437
#        252663
#        266313
#        280061
#        289688
#        304605
#        315594
#        324656
#        337950
#
# Disc length: 4686 seconds
#
# Revision: 3
# Processed by: cddbd v1.5.2PL0 Copyright (c) Steve Scherf et al.
# Submitted via: ExactAudioCopyFreeDBPlugin 1.0
#
DISCID=01124c12
DTITLE=Ray Charles - Fifteen Classic Albums Plus Bonus Singles [Real G
DTITLE=one Music]
DYEAR=2011
DGENRE=Rhythm and Blues
TTITLE0=Soul Brothers (with Milt Jackson)
TTITLE1=How Long Blues (with Milt Jackson)
TTITLE2=Cosmic Ray (with Milt Jackson)
TTITLE3=Blue Funk (with Milt Jackson)
TTITLE4=Bag's Guitar Blues (with Milt Jackson)
TTITLE5='Deed I Do (with Milt Jackson)
TTITLE6=Alabamy Bound
TTITLE7=Georgia on My Mind
TTITLE8=Basin Street Blues
TTITLE9=Mississippi Mud
TTITLE10=Moonlight in Vermont
TTITLE11=New York's My Home
TTITLE12=California, Here I Come
TTITLE13=Moon Over Miami
TTITLE14=Deep in the Heart of Texas
TTITLE15=Carry Me Back to Old Virginny
TTITLE16=Blue Hawaii
TTITLE17=Chattanooga Choo Choo
EXTD=
EXTT0=
EXTT1=
EXTT2=
EXTT3=
EXTT4=
EXTT5=
EXTT6=
EXTT7=
EXTT8=
EXTT9=
EXTT10=
EXTT11=
EXTT12=
EXTT13=
EXTT14=
EXTT15=
EXTT16=
EXTT17=
PLAYORDER=
